Coordinates
version=1
nRows=43
nColumns=12
inDegrees=yes

Units are S.I. units (second, meters, Newtons, ...)
Angles are in degrees

endheader
time	SC_y	SC_z	SC_x	AC_y	AC_z	AC_x	GH_y	GH_z	GH_yy	EL_x	PS_y
       0.0              -11.14          8.918          38.46          42.67          1.525          9.606          5.982          79.94           59.6          53.04          122.7
   0.02608              -11.14           8.92          38.46          42.67          1.526          9.604          5.974          79.93          59.61          53.05          122.6
   0.05217              -11.14          8.922          38.46          42.67          1.527          9.601          5.966          79.92          59.62          53.05          122.6
   0.07825              -11.15          8.925          38.46          42.67          1.528          9.599          5.958          79.92          59.63          53.05          122.6
    0.1043              -11.15          8.927          38.46          42.67          1.529          9.596          5.949          79.91          59.64          53.05          122.6
    0.1304              -11.16           8.93          38.46          42.67           1.53          9.594           5.94           79.9          59.65          53.05          122.6
    0.1565              -11.16          8.933          38.45          42.67          1.531          9.591           5.93          79.89          59.67          53.05          122.6
    0.1826              -11.17          8.936          38.45          42.67          1.532          9.587          5.919          79.88          59.68          53.05          122.6
    0.2087              -11.18          8.939          38.45          42.67          1.534          9.584          5.907          79.87          59.69          53.06          122.6
    0.2348              -11.18          8.943          38.45          42.67          1.535           9.58          5.895          79.86          59.71          53.06          122.6
    0.2608              -11.19          8.947          38.45          42.67          1.537          9.577          5.882          79.85          59.73          53.06          122.6
    0.2869               -11.2          8.951          38.44          42.67          1.539          9.572          5.867          79.84          59.75          53.06          122.6
     0.313              -11.21          8.956          38.44          42.67           1.54          9.568          5.852          79.83          59.77          53.07          122.6
    0.3391              -11.22           8.96          38.44          42.66          1.542          9.563          5.835          79.81          59.79          53.07          122.6
    0.3652              -11.23          8.966          38.43          42.66          1.544          9.558          5.817           79.8          59.81          53.07          122.6
    0.3913              -11.24          8.971          38.43          42.66          1.547          9.552          5.797          79.78          59.84          53.07          122.6
    0.4173              -11.25          8.977          38.43          42.66          1.549          9.546          5.776          79.76          59.86          53.08          122.5
    0.4434              -11.26          8.984          38.42          42.66          1.552          9.539          5.753          79.74          59.89          53.08          122.5
    0.4695              -11.27          8.991          38.42          42.66          1.555          9.531          5.727          79.72          59.92          53.09          122.5
    0.4956              -11.29          8.999          38.41          42.66          1.558          9.523            5.7           79.7          59.96          53.09          122.5
    0.5217               -11.3          9.008          38.41          42.66          1.562          9.514          5.669          79.67           60.0           53.1          122.5
    0.5478              -11.32          9.018           38.4          42.66          1.566          9.505          5.636          79.64          60.04           53.1          122.5
    0.5738              -11.34          9.029           38.4          42.65           1.57          9.494          5.599          79.61          60.09          53.11          122.5
    0.5999              -11.37          9.041          38.39          42.65          1.575          9.482          5.558          79.57          60.14          53.11          122.4
     0.626              -11.39          9.054          38.38          42.65           1.58          9.468          5.512          79.53           60.2          53.12          122.4
    0.6521              -11.42          9.068          38.37          42.65          1.586          9.453          5.461          79.49          60.27          53.13          122.4
    0.6782              -11.45          9.085          38.36          42.64          1.593          9.437          5.404          79.44          60.34          53.14          122.3
    0.7043              -11.48          9.103          38.35          42.64            1.6          9.418           5.34          79.39          60.42          53.15          122.3
    0.7303              -11.52          9.124          38.34          42.64          1.609          9.397          5.267          79.32          60.51          53.16          122.3
    0.7564              -11.57          9.148          38.32          42.63          1.618          9.373          5.185          79.25          60.62          53.18          122.2
    0.7825              -11.62          9.175          38.31          42.63          1.629          9.345          5.091          79.17          60.74          53.19          122.2
    0.8086              -11.68          9.207          38.29          42.62          1.642          9.314          4.983          79.08          60.88          53.21          122.1
    0.8347              -11.74          9.243          38.26          42.62          1.657          9.277          4.859          78.97          61.04          53.23          122.1
    0.8608              -11.82          9.284          38.24          42.61          1.674          9.235          4.714          78.85          61.22          53.25          122.0
    0.8869              -11.91          9.333          38.21           42.6          1.693          9.185          4.545           78.7          61.44          53.28          121.9
    0.9129              -12.02          9.391          38.17          42.59          1.717          9.127          4.345          78.53          61.69          53.31          121.8
     0.939              -12.15           9.46          38.13          42.58          1.745          9.058          4.108          78.33           62.0          53.35          121.7
    0.9651               -12.3          9.542          38.08          42.57          1.778          8.975          3.824          78.08          62.36           53.4          121.5
    0.9912              -12.49          9.641          38.02          42.55          1.818          8.874           3.48          77.79           62.8          53.46          121.3
     1.017              -12.71          9.763          37.95          42.53          1.867          8.751           3.06          77.43          63.34          53.53          121.1
     1.043              -12.99          9.912          37.85          42.51          1.928          8.599          2.541          76.98           64.0          53.61          120.8
     1.069              -13.34           10.1          37.74          42.48          2.004           8.41          1.895          76.42          64.83          53.72          120.5
     1.096              -13.78          10.33          37.59          42.44          2.099          8.172           1.08          75.72          65.87          53.85          120.1
